<?xml version="1.0" encoding="utf-8"?>
<!-- Generator: Adobe Illustrator 25.0.1, SVG Export Plug-In . SVG Version: 6.00 Build 0)  -->
<svg version="1.1" id="Ellipse_4_Image" xmlns="http://www.w3.org/2000/svg" xmlns:xlink="http://www.w3.org/1999/xlink" x="0px"
	 y="0px" viewBox="0 0 100 100" style="enable-background:new 0 0 100 100;" xml:space="preserve">
<style type="text/css">
	.st0{fill:none;stroke:#000000;stroke-width:3;stroke-linecap:round;stroke-linejoin:round;}
	.st1{fill:#FA5A0A;}
</style>
<path class="st0" d="M88.9,27.7V15.3c-0.9,0.2-1.7,0.3-2.6,0.4C70.8,17.4,57.3,9.1,48.5,1.9c-8,7-20.8,15.4-35.5,13.8
	c-0.8-0.1-1.6-0.2-2.4-0.4c-0.4,8.9-2.9,35.7,5.1,52.9c8.6,18.6,28,27.5,34.7,29.8c3.5-1.2,26-9.1,34.6-31.8
	C88.8,56,89,42.6,89,42.6"/>
<path class="st1" d="M50.9,78.4c-0.6,0-1.2-0.2-1.6-0.6c-0.4-0.4-0.6-0.9-0.6-1.5v-5c-2.6-0.1-5.2-0.5-7.6-1.3
	c-2.1-0.6-4-1.5-5.9-2.7c-0.6-0.3-1-0.8-1.1-1.5c-0.1-0.6,0-1.1,0.2-1.7c0.3-0.5,0.7-0.9,1.2-1c0.7-0.2,1.4,0,2,0.4
	c1.6,1,3.4,1.8,5.2,2.4c2.4,0.7,5,1.1,7.6,1c3.7,0,6.4-0.7,8.2-2c1.7-1.2,2.7-3.1,2.7-5.2c0.1-1.6-0.7-3.1-1.9-4.1
	c-1.9-1.3-4.1-2.2-6.4-2.5L46.3,52c-7.7-1.5-11.6-5.2-11.6-11.1c0-2.1,0.6-4.2,1.8-6c1.2-1.8,2.9-3.3,4.9-4.3
	c2.3-1.1,4.8-1.8,7.3-1.9v-5.1c0-0.6,0.2-1.1,0.6-1.5c0.4-0.4,1-0.6,1.6-0.6c0.6,0,1.1,0.2,1.6,0.6c0.4,0.4,0.7,0.9,0.6,1.5v5.1
	c2.1,0.2,4.1,0.6,6,1.4c2,0.7,3.8,1.7,5.4,3c0.6,0.4,1,1.2,0.9,1.9c-0.1,0.7-0.5,1.3-1.2,1.7c-0.8,0.3-1.8,0.2-2.5-0.4
	c-1.5-1.1-3.1-1.9-4.8-2.5c-2-0.6-4.1-0.9-6.2-0.9c-2.7-0.1-5.4,0.6-7.7,2.2c-1.9,1.3-3,3.4-2.9,5.7c-0.1,1.7,0.6,3.3,1.8,4.4
	c1.7,1.3,3.7,2.2,5.9,2.4l6.5,1.3c3.4,0.5,6.6,1.8,9.3,3.9c2,1.7,3,4.2,2.9,6.8c0.1,3.1-1.3,6.1-3.7,8c-2.8,2.2-6.1,3.4-9.6,3.7v5.1
	c0,0.6-0.2,1.1-0.6,1.5C52,78.2,51.4,78.5,50.9,78.4z"/>
<circle class="st1" cx="88.7" cy="35.7" r="3"/>
</svg>
