<?xml version="1.0" encoding="utf-8"?>
<!-- Generator: Adobe Illustrator 25.0.1, SVG Export Plug-In . SVG Version: 6.00 Build 0)  -->
<svg version="1.1" id="Ellipse_4_Image" xmlns="http://www.w3.org/2000/svg" xmlns:xlink="http://www.w3.org/1999/xlink" x="0px"
	 y="0px" viewBox="0 0 100 100" style="enable-background:new 0 0 100 100;" xml:space="preserve">
<style type="text/css">
	.st0{fill:none;stroke:#FA5A0A;stroke-width:2.5;stroke-miterlimit:10;}
	.st1{fill:none;stroke:#FA5A0A;stroke-width:4;stroke-linecap:round;stroke-linejoin:round;}
	.st2{fill:none;stroke:#000000;stroke-width:3;stroke-linecap:round;stroke-linejoin:round;}
	.st3{fill:none;stroke:#000000;stroke-width:3.5;stroke-linecap:round;stroke-linejoin:round;}
</style>
<circle class="st0" cx="81" cy="75" r="11.3"/>
<line class="st1" x1="3" y1="41.9" x2="35.9" y2="41.8"/>
<path class="st2" d="M17.5,75.7h-3.3c-4.2,0-7.7-3.4-7.7-7.7V55.2"/>
<path class="st3" d="M26.6,30.5c0,0-12.4,0.7-15.9-0.5c-2.6-0.9-4.3-3.4-4.3-6.2c0-4.2,3.5-7.7,7.7-7.7h40c4.2,0,7.7,3.4,7.7,7.7
	v44.2c0,4.2-3.5,7.7-7.7,7.7h-5.5"/>
<circle class="st0" cx="33.1" cy="75" r="11.3"/>
<polyline class="st3" points="63.4,30.4 82.2,30.4 97.2,49.5 97.2,69.3 "/>
<line class="st3" x1="71.6" y1="49.5" x2="97.2" y2="49.5"/>
</svg>
