<?xml version="1.0" encoding="utf-8"?>
<!-- Generator: Adobe Illustrator 25.0.1, SVG Export Plug-In . SVG Version: 6.00 Build 0)  -->
<svg version="1.1" id="Layer_3" xmlns="http://www.w3.org/2000/svg" xmlns:xlink="http://www.w3.org/1999/xlink" x="0px" y="0px"
	 viewBox="0 0 100 100" style="enable-background:new 0 0 100 100;" xml:space="preserve">
<style type="text/css">
	.st0{fill:none;stroke:#000000;stroke-width:3;stroke-linecap:round;stroke-linejoin:round;}
	.st1{fill:#FA5A0A;}
</style>
<path class="st0" d="M9.1,53.5V39.7L51.9,1.8l40.3,39.5v44.8c0,6.7-5.4,12.1-12.1,12.1c0,0-0.1,0-0.1,0H21.1
	c-6.7,0-12.1-5.4-12.1-12c0,0,0,0,0,0V72.3"/>
<path class="st1" d="M34.2,45.9h33.6c1.9,0,3.4,1.5,3.4,3.4v0c0,1.9-1.5,3.4-3.4,3.4H34.2c-1.9,0-3.4-1.5-3.4-3.4v0
	C30.8,47.5,32.3,45.9,34.2,45.9z"/>
<path class="st1" d="M34.2,60.1h33.6c1.9,0,3.4,1.5,3.4,3.4v0c0,1.9-1.5,3.4-3.4,3.4H34.2c-1.9,0-3.4-1.5-3.4-3.4v0
	C30.8,61.6,32.3,60.1,34.2,60.1z"/>
<path class="st1" d="M33.8,75.5h33.6c1.9,0,3.4,1.5,3.4,3.4l0,0c0,1.9-1.5,3.4-3.4,3.4H33.8c-1.9,0-3.4-1.5-3.4-3.4l0,0
	C30.4,77,31.9,75.5,33.8,75.5z"/>
<circle class="st1" cx="10.4" cy="62.8" r="3.9"/>
</svg>
