<?xml version="1.0" encoding="utf-8"?>
<!-- Generator: Adobe Illustrator 25.0.1, SVG Export Plug-In . SVG Version: 6.00 Build 0)  -->
<svg version="1.1" id="Layer_2_1_" xmlns="http://www.w3.org/2000/svg" xmlns:xlink="http://www.w3.org/1999/xlink" x="0px" y="0px"
	 viewBox="0 0 100 100" style="enable-background:new 0 0 100 100;" xml:space="preserve">
<style type="text/css">
	.st0{fill:none;stroke:#000000;stroke-width:2;stroke-linecap:round;stroke-linejoin:round;}
	.st1{fill:none;stroke:#000000;stroke-width:4;stroke-linecap:round;stroke-linejoin:round;}
	.st2{fill:#FA5A0A;}
	.st3{fill:none;stroke:#FA5A0A;stroke-width:3;stroke-linecap:round;stroke-linejoin:round;}
</style>
<path class="st0" d="M50.2,94.1"/>
<path class="st0" d="M82.5,70.7c-3.4,10.6-9.4,17.2-19.8,20.9"/>
<path class="st1" d="M14.8,39.5C14.8,20,30.6,5.6,50.2,5.6l0,0c19.5,0,33.8,14.2,34,34"/>
<path class="st2" d="M42,87.7h14.8c2.4,0,4.4,1.9,4.4,4.4l0,0c0,2.4-1.9,4.4-4.4,4.4H42c-2.4,0-4.4-1.9-4.4-4.4l0,0
	C37.6,89.6,39.5,87.7,42,87.7z"/>
<path class="st3" d="M11.3,41.2h5.1c2.3,0,4.1,1.9,4.1,4.1v14.9c0,5.1-4.1,9.3-9.3,9.3c0,0,0,0,0,0l0,0c-5.1,0-9.2-4.1-9.2-9.3v-9.8
	C2.1,45.3,6.2,41.2,11.3,41.2L11.3,41.2L11.3,41.2z"/>
<path class="st3" d="M88.7,68.7L88.7,68.7c-5.1,0-9.3-4.1-9.3-9.3l0,0V44.6c0-2.3,1.9-4.1,4.1-4.1l0,0h5.1c5.1,0,9.3,4.1,9.3,9.3
	l0,0v9.8C97.9,64.6,93.8,68.7,88.7,68.7z"/>
</svg>
